<?xml version="1.0" encoding="UTF-8" standalone="no"?>
<!DOCTYPE svg PUBLIC "-//W3C//DTD SVG 1.1//EN"
 "http://www.w3.org/Graphics/SVG/1.1/DTD/svg11.dtd">
<!-- Generated by graphviz version 2.50.0 (0)
 -->
<!-- Pages: 1 -->
<svg width="491pt" height="242pt"
 viewBox="0.00 0.00 491.46 242.00" xmlns="http://www.w3.org/2000/svg" xmlns:xlink="http://www.w3.org/1999/xlink">
<g id="graph0" class="graph" transform="scale(1 1) rotate(0) translate(4 238)">
<polygon fill="white" stroke="transparent" points="-4,4 -4,-238 487.46,-238 487.46,4 -4,4"/>
<!-- Arkenfox -->
<g id="node1" class="node">
<title>Arkenfox</title>
<g id="a_node1"><a xlink:href="https://github.com/arkenfox/user.js" xlink:title="Arkenfox">
<ellipse fill="none" stroke="black" cx="52" cy="-144" rx="51.99" ry="18"/>
<text text-anchor="middle" x="52" y="-140.3" font-family="Times,serif" font-size="14.00">Arkenfox</text>
</a>
</g>
</g>
<!-- Template1 -->
<g id="node2" class="node">
<title>Template1</title>
<ellipse fill="none" stroke="black" cx="204.69" cy="-216" rx="55.49" ry="18"/>
<text text-anchor="middle" x="204.69" y="-212.3" font-family="Times,serif" font-size="14.00">user.js v1</text>
</g>
<!-- Arkenfox&#45;&gt;Template1 -->
<g id="edge1" class="edge">
<title>Arkenfox&#45;&gt;Template1</title>
<path fill="none" stroke="black" d="M83.49,-158.57C106.52,-169.57 138.34,-184.78 163.45,-196.78"/>
<polygon fill="black" stroke="black" points="162.19,-200.05 172.72,-201.2 165.2,-193.73 162.19,-200.05"/>
</g>
<!-- Template2 -->
<g id="node3" class="node">
<title>Template2</title>
<ellipse fill="none" stroke="black" cx="204.69" cy="-72" rx="55.49" ry="18"/>
<text text-anchor="middle" x="204.69" y="-68.3" font-family="Times,serif" font-size="14.00">user.js v2</text>
</g>
<!-- Arkenfox&#45;&gt;Template2 -->
<g id="edge2" class="edge">
<title>Arkenfox&#45;&gt;Template2</title>
<path fill="none" stroke="black" d="M83.49,-129.43C106.52,-118.43 138.34,-103.22 163.45,-91.22"/>
<polygon fill="black" stroke="black" points="165.2,-94.27 172.72,-86.8 162.19,-87.95 165.2,-94.27"/>
</g>
<!-- Bash -->
<g id="node5" class="node">
<title>Bash</title>
<ellipse fill="none" stroke="black" cx="204.69" cy="-144" rx="63.89" ry="18"/>
<text text-anchor="middle" x="204.69" y="-140.3" font-family="Times,serif" font-size="14.00">Bash script</text>
</g>
<!-- Arkenfox&#45;&gt;Bash -->
<g id="edge3" class="edge">
<title>Arkenfox&#45;&gt;Bash</title>
<path fill="none" stroke="black" d="M104.01,-144C112.64,-144 121.73,-144 130.79,-144"/>
<polygon fill="black" stroke="black" points="130.96,-147.5 140.96,-144 130.96,-140.5 130.96,-147.5"/>
</g>
<!-- Template1&#45;&gt;Bash -->
<g id="edge5" class="edge">
<title>Template1&#45;&gt;Bash</title>
<path fill="none" stroke="black" d="M204.69,-197.86C204.69,-189.27 204.69,-180.68 204.69,-172.09"/>
<polygon fill="black" stroke="black" points="208.19,-172 204.69,-162 201.19,-172 208.19,-172"/>
</g>
<!-- Output -->
<g id="node4" class="node">
<title>Output</title>
<ellipse fill="none" stroke="black" cx="394.42" cy="-30" rx="89.08" ry="18"/>
<text text-anchor="middle" x="394.42" y="-26.3" font-family="Times,serif" font-size="14.00">&lt;profile&gt;/user.js</text>
</g>
<!-- Template2&#45;&gt;Output -->
<g id="edge7" class="edge">
<title>Template2&#45;&gt;Output</title>
<path fill="none" stroke="black" d="M250.65,-61.94C272.58,-57.03 299.45,-51.02 323.94,-45.54"/>
<polygon fill="black" stroke="black" points="324.91,-48.91 333.91,-43.31 323.38,-42.08 324.91,-48.91"/>
</g>
<!-- Bash&#45;&gt;Template2 -->
<g id="edge6" class="edge">
<title>Bash&#45;&gt;Template2</title>
<path fill="none" stroke="black" d="M204.69,-125.59C204.69,-117.94 204.69,-108.89 204.69,-100.43"/>
<polygon fill="black" stroke="black" points="208.19,-100.17 204.69,-90.17 201.19,-100.17 208.19,-100.17"/>
<text text-anchor="middle" x="194.19" y="-104.3" font-family="Times,serif" font-size="14.00">update</text>
</g>
<!-- *.js -->
<g id="node6" class="node">
<title>*.js</title>
<ellipse fill="none" stroke="black" cx="204.69" cy="-18" rx="27" ry="18"/>
<text text-anchor="middle" x="204.69" y="-14.3" font-family="Times,serif" font-size="14.00">*.js</text>
</g>
<!-- *.js&#45;&gt;Output -->
<g id="edge4" class="edge">
<title>*.js&#45;&gt;Output</title>
<path fill="none" stroke="black" d="M231.79,-19.67C249.59,-20.81 274.35,-22.39 299.14,-23.97"/>
<polygon fill="black" stroke="black" points="299.17,-27.48 309.38,-24.63 299.62,-20.5 299.17,-27.48"/>
</g>
</g>
</svg>
