<?xml version="1.0" encoding="UTF-8" standalone="no"?>
<!DOCTYPE svg PUBLIC "-//W3C//DTD SVG 1.1//EN"
 "http://www.w3.org/Graphics/SVG/1.1/DTD/svg11.dtd">
<!-- Generated by graphviz version 2.50.0 (0)
 -->
<!-- Pages: 1 -->
<svg width="719pt" height="183pt"
 viewBox="0.00 0.00 719.01 183.00" xmlns="http://www.w3.org/2000/svg" xmlns:xlink="http://www.w3.org/1999/xlink">
<g id="graph0" class="graph" transform="scale(1 1) rotate(0) translate(4 179)">
<polygon fill="white" stroke="transparent" points="-4,4 -4,-179 715.01,-179 715.01,4 -4,4"/>
<!-- ArkenfoxL -->
<g id="node1" class="node">
<title>ArkenfoxL</title>
<g id="a_node1"><a xlink:href="https://github.com/arkenfox/user.js" xlink:title="Arkenfox\nBash Script">
<ellipse fill="none" stroke="black" cx="70.71" cy="-104" rx="70.92" ry="26.74"/>
<text text-anchor="middle" x="70.71" y="-107.8" font-family="Times,serif" font-size="14.00">Arkenfox</text>
<text text-anchor="middle" x="70.71" y="-92.8" font-family="Times,serif" font-size="14.00">Bash Script</text>
</a>
</g>
</g>
<!-- Template1 -->
<g id="node2" class="node">
<title>Template1</title>
<ellipse fill="none" stroke="black" cx="233.67" cy="-157" rx="55.49" ry="18"/>
<text text-anchor="middle" x="233.67" y="-153.3" font-family="Times,serif" font-size="14.00">user.js v1</text>
</g>
<!-- ArkenfoxL&#45;&gt;Template1 -->
<g id="edge1" class="edge">
<title>ArkenfoxL&#45;&gt;Template1</title>
<path fill="none" stroke="black" d="M124.86,-121.5C144.12,-127.84 165.75,-134.97 184.55,-141.16"/>
<polygon fill="black" stroke="black" points="183.51,-144.5 194.1,-144.3 185.69,-137.85 183.51,-144.5"/>
</g>
<!-- Template2 -->
<g id="node3" class="node">
<title>Template2</title>
<ellipse fill="none" stroke="black" cx="233.67" cy="-85" rx="55.49" ry="18"/>
<text text-anchor="middle" x="233.67" y="-81.3" font-family="Times,serif" font-size="14.00">user.js v2</text>
</g>
<!-- ArkenfoxL&#45;&gt;Template2 -->
<g id="edge2" class="edge">
<title>ArkenfoxL&#45;&gt;Template2</title>
<path fill="none" stroke="black" d="M138.57,-96.11C149.44,-94.82 160.64,-93.5 171.37,-92.24"/>
<polygon fill="black" stroke="black" points="171.95,-95.69 181.47,-91.04 171.13,-88.74 171.95,-95.69"/>
</g>
<!-- Template1&#45;&gt;Template2 -->
<g id="edge5" class="edge">
<title>Template1&#45;&gt;Template2</title>
<path fill="none" stroke="black" d="M233.67,-138.59C233.67,-130.94 233.67,-121.89 233.67,-113.43"/>
<polygon fill="black" stroke="black" points="237.17,-113.17 233.67,-103.17 230.17,-113.17 237.17,-113.17"/>
<text text-anchor="middle" x="223.17" y="-117.3" font-family="Times,serif" font-size="14.00">update</text>
</g>
<!-- Output1 -->
<g id="node4" class="node">
<title>Output1</title>
<ellipse fill="none" stroke="black" cx="429.25" cy="-72" rx="103.18" ry="18"/>
<text text-anchor="middle" x="429.25" y="-68.3" font-family="Times,serif" font-size="14.00">&lt;profile&gt;/user.js v1</text>
</g>
<!-- Template1&#45;&gt;Output1 -->
<g id="edge7" class="edge">
<title>Template1&#45;&gt;Output1</title>
<path fill="none" stroke="black" d="M267.51,-142.58C298.57,-128.94 345.53,-108.32 380.68,-92.89"/>
<polygon fill="black" stroke="black" points="382.51,-95.91 390.26,-88.68 379.7,-89.5 382.51,-95.91"/>
</g>
<!-- Output2 -->
<g id="node5" class="node">
<title>Output2</title>
<ellipse fill="none" stroke="black" cx="429.25" cy="-18" rx="103.18" ry="18"/>
<text text-anchor="middle" x="429.25" y="-14.3" font-family="Times,serif" font-size="14.00">&lt;profile&gt;/user.js v2</text>
</g>
<!-- Template2&#45;&gt;Output2 -->
<g id="edge9" class="edge">
<title>Template2&#45;&gt;Output2</title>
<path fill="none" stroke="black" d="M265.44,-70.08C282.91,-61.98 305.33,-52.18 325.91,-45 336.01,-41.48 346.8,-38.16 357.45,-35.14"/>
<polygon fill="black" stroke="black" points="358.47,-38.49 367.17,-32.45 356.6,-31.75 358.47,-38.49"/>
</g>
<!-- ArkenfoxR -->
<g id="node6" class="node">
<title>ArkenfoxR</title>
<ellipse fill="none" stroke="black" cx="640.3" cy="-44" rx="70.92" ry="26.74"/>
<text text-anchor="middle" x="640.3" y="-47.8" font-family="Times,serif" font-size="14.00">Arkenfox</text>
<text text-anchor="middle" x="640.3" y="-32.8" font-family="Times,serif" font-size="14.00">Bash Script</text>
</g>
<!-- ArkenfoxR&#45;&gt;Output1 -->
<g id="edge3" class="edge">
<title>ArkenfoxR&#45;&gt;Output1</title>
<path fill="none" stroke="black" d="M573.28,-52.84C556.93,-55.03 539.13,-57.42 521.8,-59.74"/>
<polygon fill="black" stroke="black" points="521.12,-56.3 511.68,-61.09 522.05,-63.24 521.12,-56.3"/>
</g>
<!-- ArkenfoxR&#45;&gt;Output2 -->
<g id="edge4" class="edge">
<title>ArkenfoxR&#45;&gt;Output2</title>
<path fill="none" stroke="black" d="M572.96,-35.75C557.39,-33.81 540.51,-31.71 524,-29.66"/>
<polygon fill="black" stroke="black" points="524.13,-26.15 513.78,-28.39 523.27,-33.1 524.13,-26.15"/>
</g>
<!-- *.js -->
<g id="node7" class="node">
<title>*.js</title>
<ellipse fill="none" stroke="black" cx="70.71" cy="-31" rx="27" ry="18"/>
<text text-anchor="middle" x="70.71" y="-27.3" font-family="Times,serif" font-size="14.00">*.js</text>
</g>
<!-- *.js&#45;&gt;Output1 -->
<g id="edge6" class="edge">
<title>*.js&#45;&gt;Output1</title>
<path fill="none" stroke="black" d="M97.35,-33.95C145.82,-39.52 253.11,-51.86 332.45,-60.98"/>
<polygon fill="black" stroke="black" points="332.13,-64.47 342.47,-62.14 332.93,-57.52 332.13,-64.47"/>
</g>
<!-- *.js&#45;&gt;Output2 -->
<g id="edge8" class="edge">
<title>*.js&#45;&gt;Output2</title>
<path fill="none" stroke="black" d="M97.79,-28.93C115.23,-27.61 138.69,-25.98 159.42,-25 210.8,-22.57 267.74,-20.94 315.94,-19.87"/>
<polygon fill="black" stroke="black" points="316.17,-23.36 326.09,-19.64 316.02,-16.36 316.17,-23.36"/>
</g>
</g>
</svg>
