<?xml version="1.0" encoding="UTF-8" standalone="no"?>
<!DOCTYPE svg PUBLIC "-//W3C//DTD SVG 1.1//EN"
 "http://www.w3.org/Graphics/SVG/1.1/DTD/svg11.dtd">
<!-- Generated by graphviz version 2.50.0 (0)
 -->
<!-- Pages: 1 -->
<svg width="620pt" height="169pt"
 viewBox="0.00 0.00 619.96 169.00" xmlns="http://www.w3.org/2000/svg" xmlns:xlink="http://www.w3.org/1999/xlink">
<g id="graph0" class="graph" transform="scale(1 1) rotate(0) translate(4 165)">
<polygon fill="white" stroke="transparent" points="-4,4 -4,-165 615.96,-165 615.96,4 -4,4"/>
<!-- Project -->
<g id="node1" class="node">
<title>Project</title>
<ellipse fill="none" stroke="black" cx="65.64" cy="-72" rx="65.79" ry="18"/>
<text text-anchor="middle" x="65.64" y="-68.3" font-family="Times,serif" font-size="14.00">This project</text>
</g>
<!-- Template2 -->
<g id="node3" class="node">
<title>Template2</title>
<ellipse fill="none" stroke="black" cx="317.58" cy="-134" rx="55.49" ry="18"/>
<text text-anchor="middle" x="317.58" y="-130.3" font-family="Times,serif" font-size="14.00">user.js v2</text>
</g>
<!-- Project&#45;&gt;Template2 -->
<g id="edge1" class="edge">
<title>Project&#45;&gt;Template2</title>
<path fill="none" stroke="black" d="M114.83,-83.95C157.34,-94.5 219.2,-109.84 263.2,-120.76"/>
<polygon fill="black" stroke="black" points="262.59,-124.21 273.13,-123.22 264.27,-117.42 262.59,-124.21"/>
<text text-anchor="middle" x="184.79" y="-111.8" font-family="Times,serif" font-size="14.00">Download</text>
</g>
<!-- Combine -->
<g id="node5" class="node">
<title>Combine</title>
<ellipse fill="none" stroke="black" cx="317.58" cy="-18" rx="51.99" ry="18"/>
<text text-anchor="middle" x="317.58" y="-14.3" font-family="Times,serif" font-size="14.00">Combine</text>
</g>
<!-- Project&#45;&gt;Combine -->
<g id="edge3" class="edge">
<title>Project&#45;&gt;Combine</title>
<path fill="none" stroke="black" d="M117.83,-60.94C160.14,-51.8 220.03,-38.86 262.99,-29.58"/>
<polygon fill="black" stroke="black" points="263.94,-32.95 272.97,-27.42 262.46,-26.11 263.94,-32.95"/>
</g>
<!-- Deploy addons -->
<g id="node7" class="node">
<title>Deploy addons</title>
<ellipse fill="none" stroke="black" cx="317.58" cy="-72" rx="79.09" ry="18"/>
<text text-anchor="middle" x="317.58" y="-68.3" font-family="Times,serif" font-size="14.00">Deploy addons</text>
</g>
<!-- Project&#45;&gt;Deploy addons -->
<g id="edge6" class="edge">
<title>Project&#45;&gt;Deploy addons</title>
<path fill="none" stroke="black" d="M131.33,-72C160.7,-72 195.91,-72 227.7,-72"/>
<polygon fill="black" stroke="black" points="227.89,-75.5 237.89,-72 227.89,-68.5 227.89,-75.5"/>
</g>
<!-- Template1 -->
<g id="node2" class="node">
<title>Template1</title>
<ellipse fill="none" stroke="black" cx="65.64" cy="-143" rx="55.49" ry="18"/>
<text text-anchor="middle" x="65.64" y="-139.3" font-family="Times,serif" font-size="14.00">user.js v1</text>
</g>
<!-- Template1&#45;&gt;Template2 -->
<g id="edge2" class="edge">
<title>Template1&#45;&gt;Template2</title>
<path fill="none" stroke="black" d="M120.57,-141.06C159.2,-139.67 211.39,-137.79 252.21,-136.32"/>
<polygon fill="black" stroke="black" points="252.45,-139.81 262.32,-135.95 252.2,-132.82 252.45,-139.81"/>
<text text-anchor="middle" x="184.79" y="-142.8" font-family="Times,serif" font-size="14.00">Diff</text>
</g>
<!-- Output -->
<g id="node4" class="node">
<title>Output</title>
<ellipse fill="none" stroke="black" cx="522.92" cy="-18" rx="89.08" ry="18"/>
<text text-anchor="middle" x="522.92" y="-14.3" font-family="Times,serif" font-size="14.00">&lt;profile&gt;/user.js</text>
</g>
<!-- Combine&#45;&gt;Output -->
<g id="edge5" class="edge">
<title>Combine&#45;&gt;Output</title>
<path fill="none" stroke="black" d="M369.63,-18C386.08,-18 404.91,-18 423.59,-18"/>
<polygon fill="black" stroke="black" points="423.63,-21.5 433.63,-18 423.63,-14.5 423.63,-21.5"/>
</g>
<!-- *.js -->
<g id="node6" class="node">
<title>*.js</title>
<ellipse fill="none" stroke="black" cx="65.64" cy="-18" rx="27" ry="18"/>
<text text-anchor="middle" x="65.64" y="-14.3" font-family="Times,serif" font-size="14.00">*.js</text>
</g>
<!-- *.js&#45;&gt;Combine -->
<g id="edge4" class="edge">
<title>*.js&#45;&gt;Combine</title>
<path fill="none" stroke="black" d="M92.92,-18C131.11,-18 203.05,-18 255.05,-18"/>
<polygon fill="black" stroke="black" points="255.17,-21.5 265.17,-18 255.17,-14.5 255.17,-21.5"/>
</g>
</g>
</svg>
