<?xml version="1.0" encoding="UTF-8" standalone="no"?>
<!DOCTYPE svg PUBLIC "-//W3C//DTD SVG 1.1//EN"
 "http://www.w3.org/Graphics/SVG/1.1/DTD/svg11.dtd">
<!-- Generated by graphviz version 2.50.0 (0)
 -->
<!-- Pages: 1 -->
<svg width="471pt" height="177pt"
 viewBox="0.00 0.00 471.37 177.00" xmlns="http://www.w3.org/2000/svg" xmlns:xlink="http://www.w3.org/1999/xlink">
<g id="graph0" class="graph" transform="scale(1 1) rotate(0) translate(4 173)">
<polygon fill="white" stroke="transparent" points="-4,4 -4,-173 467.37,-173 467.37,4 -4,4"/>
<!-- Project -->
<g id="node1" class="node">
<title>Project</title>
<ellipse fill="none" stroke="black" cx="65.64" cy="-88" rx="65.79" ry="18"/>
<text text-anchor="middle" x="65.64" y="-84.3" font-family="Times,serif" font-size="14.00">This project</text>
</g>
<!-- Template2 -->
<g id="node3" class="node">
<title>Template2</title>
<ellipse fill="none" stroke="black" cx="374.33" cy="-146" rx="55.49" ry="18"/>
<text text-anchor="middle" x="374.33" y="-142.3" font-family="Times,serif" font-size="14.00">user.js v2</text>
</g>
<!-- Project&#45;&gt;Template2 -->
<g id="edge2" class="edge">
<title>Project&#45;&gt;Template2</title>
<path fill="none" stroke="black" d="M120.06,-98.1C174.83,-108.46 259.73,-124.52 315.91,-135.14"/>
<polygon fill="black" stroke="black" points="315.58,-138.64 326.05,-137.06 316.88,-131.76 315.58,-138.64"/>
<text text-anchor="middle" x="208.29" y="-128.8" font-family="Times,serif" font-size="14.00">Download &amp; Diff</text>
</g>
<!-- Output -->
<g id="node4" class="node">
<title>Output</title>
<ellipse fill="none" stroke="black" cx="374.33" cy="-26" rx="89.08" ry="18"/>
<text text-anchor="middle" x="374.33" y="-22.3" font-family="Times,serif" font-size="14.00">&lt;profile&gt;/user.js</text>
</g>
<!-- Project&#45;&gt;Output -->
<g id="edge4" class="edge">
<title>Project&#45;&gt;Output</title>
<path fill="none" stroke="black" d="M120.36,-77.89C160.8,-70.19 217.58,-59.22 267.29,-49 279.04,-46.58 291.5,-43.95 303.6,-41.35"/>
<polygon fill="black" stroke="black" points="304.61,-44.71 313.65,-39.18 303.14,-37.87 304.61,-44.71"/>
</g>
<!-- Deploy addons -->
<g id="node5" class="node">
<title>Deploy addons</title>
<ellipse fill="none" stroke="black" cx="374.33" cy="-88" rx="79.09" ry="18"/>
<text text-anchor="middle" x="374.33" y="-84.3" font-family="Times,serif" font-size="14.00">Deploy addons</text>
</g>
<!-- Project&#45;&gt;Deploy addons -->
<g id="edge3" class="edge">
<title>Project&#45;&gt;Deploy addons</title>
<path fill="none" stroke="black" d="M131.31,-88C175.85,-88 235.61,-88 284.6,-88"/>
<polygon fill="black" stroke="black" points="284.88,-91.5 294.88,-88 284.88,-84.5 284.88,-91.5"/>
</g>
<!-- Template1 -->
<g id="node2" class="node">
<title>Template1</title>
<ellipse fill="none" stroke="black" cx="65.64" cy="-151" rx="55.49" ry="18"/>
<text text-anchor="middle" x="65.64" y="-147.3" font-family="Times,serif" font-size="14.00">user.js v1</text>
</g>
<!-- Template1&#45;&gt;Template2 -->
<g id="edge1" class="edge">
<title>Template1&#45;&gt;Template2</title>
<path fill="none" stroke="black" d="M121.12,-150.11C173.7,-149.25 253.32,-147.96 309,-147.05"/>
<polygon fill="black" stroke="black" points="309.16,-150.55 319.1,-146.88 309.05,-143.55 309.16,-150.55"/>
</g>
<!-- *.js -->
<g id="node6" class="node">
<title>*.js</title>
<ellipse fill="none" stroke="black" cx="65.64" cy="-18" rx="27" ry="18"/>
<text text-anchor="middle" x="65.64" y="-14.3" font-family="Times,serif" font-size="14.00">*.js</text>
</g>
<!-- *.js&#45;&gt;Output -->
<g id="edge5" class="edge">
<title>*.js&#45;&gt;Output</title>
<path fill="none" stroke="black" d="M92.95,-17.62C131.3,-17.18 204.8,-16.78 267.29,-19 271.49,-19.15 275.78,-19.33 280.12,-19.53"/>
<polygon fill="black" stroke="black" points="280.12,-23.03 290.29,-20.03 280.47,-16.04 280.12,-23.03"/>
<text text-anchor="middle" x="208.29" y="-37.8" font-family="Times,serif" font-size="14.00">Build</text>
<text text-anchor="middle" x="208.29" y="-22.8" font-family="Times,serif" font-size="14.00">*.js</text>
</g>
</g>
</svg>
